<?xml version="1.0" encoding="utf-8"?>
<!-- Generator: Adobe Illustrator 16.0.0, SVG Export Plug-In . SVG Version: 6.00 Build 0)  -->
<!DOCTYPE svg PUBLIC "-//W3C//DTD SVG 1.1//EN" "http://www.w3.org/Graphics/SVG/1.1/DTD/svg11.dtd">
<svg version="1.1" id="Layer_1" xmlns="http://www.w3.org/2000/svg" xmlns:xlink="http://www.w3.org/1999/xlink" x="0px" y="0px"
	 width="1000px" height="332.526px" viewBox="0 0 1000 332.526" enable-background="new 0 0 1000 332.526" xml:space="preserve">
<g>
	<path fill="#34C7F3" d="M0,113.008h30.122v11.465h0.389c0.646-1.166,1.617-2.59,2.914-4.275c1.294-1.682,3.076-3.334,5.345-4.956
		c2.265-1.618,5.149-3.012,8.647-4.178c3.498-1.166,7.773-1.749,12.826-1.749c2.332,0,4.889,0.261,7.676,0.777
		c2.785,0.52,5.539,1.491,8.26,2.915c2.721,1.427,5.374,3.37,7.967,5.83c2.59,2.463,4.986,5.703,7.19,9.717
		c3.367-5.311,7.837-9.844,13.409-13.603c5.568-3.756,12.5-5.636,20.793-5.636c1.943,0,4.081,0.13,6.412,0.389
		c2.332,0.261,4.762,0.777,7.288,1.555s5.053,1.879,7.579,3.304c2.526,1.427,4.889,3.303,7.093,5.635
		c2.46,2.721,4.47,5.281,6.024,7.676c1.555,2.398,2.751,5.149,3.596,8.259c0.84,3.109,1.391,6.705,1.651,10.786
		c0.258,4.081,0.389,9.103,0.389,15.061v58.881h-32.259v-57.327c0-2.202-0.098-4.694-0.292-7.482
		c-0.194-2.784-0.811-5.374-1.846-7.773c-1.038-2.396-2.657-4.437-4.858-6.122c-2.205-1.682-5.377-2.526-9.522-2.526
		c-4.536,0-8.001,0.875-10.396,2.624c-2.399,1.749-4.147,3.856-5.247,6.316c-1.102,2.462-1.748,4.925-1.943,7.384
		c-0.194,2.463-0.291,4.47-0.291,6.024v58.881h-32.26v-58.687c0-1.424-0.097-3.401-0.291-5.927c-0.194-2.527-0.777-5.02-1.749-7.482
		c-0.972-2.459-2.56-4.597-4.761-6.413c-2.205-1.813-5.314-2.721-9.328-2.721c-4.537,0-8.034,0.941-10.494,2.818
		c-2.463,1.88-4.275,4.114-5.441,6.705c-1.166,2.593-1.846,5.247-2.04,7.967s-0.292,4.858-0.292,6.413v57.327H0V113.008z"/>
	<path fill="#34C7F3" d="M175.599,166.225c0-6.536,1.184-13.169,3.557-19.898c2.37-6.729,5.927-12.815,10.67-18.265
		c4.74-5.446,10.701-9.901,17.88-13.362c7.177-3.46,15.636-5.19,25.378-5.19c9.738,0,18.197,1.73,25.377,5.19
		c7.178,3.461,13.137,7.916,17.881,13.362c4.74,5.45,8.297,11.536,10.67,18.265c2.369,6.729,3.557,13.362,3.557,19.898
		c0,6.537-1.188,13.17-3.557,19.899c-2.373,6.728-5.93,12.817-10.67,18.264c-4.744,5.448-10.703,9.9-17.881,13.361
		c-7.18,3.46-15.639,5.191-25.377,5.191c-9.742,0-18.201-1.731-25.378-5.191c-7.179-3.461-13.14-7.913-17.88-13.361
		c-4.743-5.446-8.3-11.536-10.67-18.264C176.782,179.395,175.599,172.762,175.599,166.225z M207.513,166.225
		c0,3.846,0.674,7.436,2.02,10.766c1.346,3.336,3.201,6.186,5.574,8.557c2.371,2.373,5.096,4.229,8.172,5.576
		c3.075,1.346,6.344,2.018,9.805,2.018s6.729-0.672,9.805-2.018c3.076-1.347,5.799-3.203,8.171-5.576
		c2.37-2.371,4.229-5.221,5.575-8.557c1.346-3.33,2.02-6.92,2.02-10.766c0-3.845-0.674-7.432-2.02-10.766
		c-1.346-3.332-3.205-6.182-5.575-8.555c-2.372-2.37-5.095-4.229-8.171-5.575s-6.344-2.019-9.805-2.019s-6.729,0.673-9.805,2.019
		c-3.076,1.346-5.801,3.205-8.172,5.575c-2.373,2.373-4.229,5.224-5.574,8.555C208.187,158.793,207.513,162.38,207.513,166.225z"/>
	<path fill="#34C7F3" d="M403.947,84.125c0,2.468,0.462,4.771,1.386,6.909c0.924,2.14,2.197,3.969,3.826,5.49
		c1.629,1.523,3.498,2.715,5.611,3.579c2.111,0.863,4.355,1.295,6.731,1.295s4.619-0.432,6.731-1.295
		c2.112-0.864,3.98-2.056,5.609-3.579c1.629-1.521,2.904-3.35,3.828-5.49c0.925-2.138,1.387-4.441,1.387-6.909
		s-0.462-4.769-1.387-6.91c-0.924-2.137-2.199-3.967-3.828-5.49c-1.629-1.52-3.497-2.714-5.609-3.577
		c-2.112-0.864-4.355-1.296-6.731-1.296s-4.62,0.432-6.731,1.296c-2.113,0.863-3.982,2.057-5.611,3.577
		c-1.629,1.523-2.902,3.353-3.826,5.49C404.409,79.356,403.947,81.658,403.947,84.125z"/>
	<path fill="#34C7F3" d="M356.427,220.861h-30.898l-38.672-107.853h33.426l20.599,67.237h0.39l20.598-67.237h33.426L356.427,220.861
		z"/>
	<rect x="404.556" y="113.008" fill="#34C7F3" width="32.26" height="107.853"/>
	<path fill="#34C7F3" d="M557.022,186.088c-2.594,6.017-5.766,11.295-9.521,15.835c-3.76,4.544-7.904,8.349-12.438,11.42
		c-9.07,6.396-19.306,9.598-30.705,9.598c-7.773,0-15.094-1.439-21.959-4.318c-6.867-2.88-12.923-6.878-18.17-11.996
		c-5.246-5.116-9.395-11.101-12.438-17.946c-3.045-6.844-4.566-14.232-4.566-22.168c0-7.42,1.391-14.587,4.178-21.497
		c2.785-6.91,6.705-12.986,11.757-18.234c5.054-5.245,11.045-9.468,17.977-12.667c6.929-3.197,14.478-4.798,22.64-4.798
		s15.74,1.505,22.736,4.51c6.996,3.008,13.02,7.135,18.072,12.38c5.054,5.248,9.004,11.42,11.855,18.521
		c2.848,7.102,4.274,14.683,4.274,22.744c0,2.178-0.066,3.809-0.193,4.895c-0.131,1.089-0.326,2.274-0.584,3.552h-80.842
		c1.035,6.398,3.917,11.356,8.648,14.875c4.728,3.52,10.266,5.277,16.614,5.277c4.923,0,8.873-0.96,11.854-2.879
		c2.979-1.92,5.569-4.286,7.773-7.103H557.022z M528.456,154.42c-0.389-1.535-1.069-3.359-2.04-5.47
		c-0.972-2.111-2.43-4.127-4.373-6.046c-1.942-1.919-4.405-3.518-7.384-4.798c-2.982-1.277-6.544-1.919-10.688-1.919
		c-4.147,0-7.71,0.642-10.688,1.919c-2.981,1.28-5.441,2.879-7.385,4.798c-1.943,1.919-3.4,3.935-4.373,6.046
		c-0.971,2.111-1.65,3.935-2.039,5.47H528.456z"/>
	<path fill="#343432" d="M600.559,137.494h-12.048v-24.485h12.048v-5.636c0-7.512,1.391-13.473,4.179-17.878
		c2.784-4.403,6.281-7.74,10.493-10.008c4.209-2.265,8.713-3.692,13.507-4.275c4.792-0.583,9.133-0.875,13.02-0.875h4.664v24.486
		h-3.692c-0.649,0-1.554,0.097-2.72,0.288c-1.167,0.191-2.269,0.638-3.305,1.342c-1.038,0.704-1.942,1.694-2.721,2.973
		c-0.776,1.278-1.166,3.067-1.166,5.365v4.218h13.604v24.485h-13.604v83.367h-32.259V137.494z"/>
	<path fill="#343432" d="M649.178,166.225c0-6.536,1.196-13.169,3.596-19.898c2.395-6.729,5.99-12.815,10.785-18.265
		c4.791-5.446,10.815-9.901,18.072-13.362c7.254-3.46,15.805-5.19,25.651-5.19c9.845,0,18.396,1.73,25.652,5.19
		c7.254,3.461,13.277,7.916,18.072,13.362c4.791,5.45,8.387,11.536,10.785,18.265c2.396,6.729,3.596,13.362,3.596,19.898
		c0,6.537-1.199,13.17-3.596,19.899c-2.398,6.728-5.994,12.817-10.785,18.264c-4.795,5.448-10.818,9.9-18.072,13.361
		c-7.257,3.46-15.808,5.191-25.652,5.191c-9.847,0-18.397-1.731-25.651-5.191c-7.257-3.461-13.281-7.913-18.072-13.361
		c-4.795-5.446-8.391-11.536-10.785-18.264C650.374,179.395,649.178,172.762,649.178,166.225z M681.437,166.225
		c0,3.846,0.68,7.436,2.04,10.766c1.36,3.336,3.237,6.186,5.636,8.557c2.396,2.373,5.15,4.229,8.26,5.576
		c3.109,1.346,6.412,2.018,9.91,2.018s6.802-0.672,9.911-2.018c3.109-1.347,5.86-3.203,8.259-5.576
		c2.396-2.371,4.275-5.221,5.636-8.557c1.36-3.33,2.041-6.92,2.041-10.766c0-3.845-0.681-7.432-2.041-10.766
		c-1.36-3.332-3.239-6.182-5.636-8.555c-2.398-2.37-5.149-4.229-8.259-5.575s-6.413-2.019-9.911-2.019s-6.801,0.673-9.91,2.019
		s-5.863,3.205-8.26,5.575c-2.398,2.373-4.275,5.224-5.636,8.555C682.116,158.793,681.437,162.38,681.437,166.225z"/>
	<path fill="#343432" d="M775.734,113.008h30.121v11.465h0.389c0.777-1.293,1.847-2.818,3.206-4.567
		c1.36-1.749,3.173-3.401,5.441-4.955c2.265-1.555,5.083-2.882,8.453-3.984c3.367-1.099,7.448-1.652,12.243-1.652
		c5.18,0,10.33,0.908,15.449,2.721c5.117,1.815,9.164,4.017,12.146,6.607c1.424,1.297,2.882,2.818,4.373,4.567
		c1.488,1.749,2.817,3.984,3.983,6.705s2.138,5.994,2.915,9.813c0.777,3.823,1.166,8.39,1.166,13.701v67.432h-32.26v-58.881
		c0-1.943-0.096-4.178-0.291-6.705c-0.194-2.526-0.811-4.955-1.846-7.287c-1.039-2.332-2.69-4.306-4.955-5.927
		c-2.269-1.619-5.539-2.429-9.813-2.429c-4.665,0-8.229,0.875-10.689,2.624c-2.462,1.749-4.274,3.823-5.441,6.219
		c-1.165,2.398-1.846,4.858-2.04,7.385c-0.193,2.526-0.291,4.633-0.291,6.315v58.687h-32.259V113.008z"/>
	<path fill="#343432" d="M996.309,186.088c-2.594,6.017-5.767,11.295-9.522,15.835c-3.76,4.544-7.903,8.349-12.438,11.42
		c-9.069,6.396-19.306,9.598-30.704,9.598c-7.773,0-15.094-1.439-21.96-4.318c-6.867-2.88-12.923-6.878-18.17-11.996
		c-5.246-5.116-9.395-11.101-12.437-17.946c-3.046-6.844-4.567-14.232-4.567-22.168c0-7.42,1.391-14.587,4.179-21.497
		c2.784-6.91,6.704-12.986,11.757-18.234c5.053-5.245,11.043-9.468,17.976-12.667c6.929-3.197,14.478-4.798,22.64-4.798
		c8.161,0,15.74,1.505,22.736,4.51c6.996,3.008,13.021,7.135,18.073,12.38c5.053,5.248,9.003,11.42,11.854,18.521
		c2.848,7.102,4.274,14.683,4.274,22.744c0,2.178-0.066,3.809-0.194,4.895c-0.13,1.089-0.324,2.274-0.583,3.552h-80.841
		c1.035,6.398,3.916,11.356,8.647,14.875c4.728,3.52,10.266,5.277,16.615,5.277c4.922,0,8.873-0.96,11.854-2.879
		c2.979-1.92,5.568-4.286,7.773-7.103H996.309z M967.741,154.42c-0.388-1.535-1.068-3.359-2.04-5.47
		c-0.972-2.111-2.429-4.127-4.373-6.046c-1.943-1.919-4.405-3.518-7.385-4.798c-2.981-1.277-6.543-1.919-10.688-1.919
		c-4.147,0-7.709,0.642-10.688,1.919c-2.981,1.28-5.441,2.879-7.385,4.798c-1.942,1.919-3.4,3.935-4.372,6.046
		c-0.972,2.111-1.651,3.935-2.04,5.47H967.741z"/>
	<rect x="573.476" fill="#343432" width="4.083" height="332.526"/>
	<line fill="#343432" x1="576.946" y1="235.667" x2="576.946" y2="260.264"/>
	<line fill="#343432" x1="576.946" y1="278.636" x2="577.763" y2="278.636"/>
</g>
</svg>
